<svg width="1064" height="1064" viewBox="0 0 1064 1064" fill="none" xmlns="http://www.w3.org/2000/svg">
<path d="M400.367 723.22V586.687H352.166V568.366H467.325V586.687H419.124V723.22H400.367Z" fill="#2D2D2D"/>
<path d="M465.57 723.22V607.625H481.709L482.582 636.851L480.837 636.196C482.291 626.309 485.417 619.112 490.215 614.604C495.159 609.951 501.702 607.625 509.845 607.625H521.186V625.073H510.063C504.247 625.073 499.376 626.164 495.45 628.345C491.67 630.38 488.761 633.506 486.726 637.723C484.836 641.794 483.89 647.029 483.89 653.427V723.22H465.57Z" fill="#2D2D2D"/>
<path d="M559.762 725.837C547.839 725.837 538.315 723.074 531.19 717.549C524.211 712.024 520.721 704.317 520.721 694.43C520.721 684.543 523.629 676.764 529.445 671.093C535.261 665.422 544.494 661.424 557.144 659.097L598.148 651.464C598.148 641.722 595.821 634.452 591.169 629.653C586.661 624.855 579.827 622.456 570.667 622.456C562.67 622.456 556.345 624.273 551.692 627.908C547.039 631.398 543.84 636.487 542.095 643.176L522.684 641.649C524.865 630.744 530.099 621.947 538.387 615.258C546.821 608.424 557.581 605.008 570.667 605.008C585.498 605.008 596.839 609.224 604.691 617.658C612.543 625.945 616.469 637.432 616.469 652.118V699.883C616.469 702.5 616.905 704.39 617.777 705.553C618.795 706.571 620.394 707.08 622.575 707.08H627.156V723.22C626.574 723.365 625.629 723.438 624.32 723.438C623.012 723.583 621.63 723.656 620.176 723.656C614.942 723.656 610.652 722.856 607.308 721.257C604.109 719.512 601.783 716.895 600.329 713.405C598.875 709.77 598.148 705.044 598.148 699.228L600.329 699.665C599.311 704.608 596.839 709.116 592.913 713.187C588.987 717.113 584.117 720.239 578.3 722.565C572.484 724.746 566.305 725.837 559.762 725.837ZM561.506 709.697C569.213 709.697 575.756 708.243 581.136 705.335C586.661 702.282 590.878 698.211 593.786 693.121C596.694 687.887 598.148 682.071 598.148 675.673V667.385L560.634 674.365C552.782 675.819 547.33 678.072 544.276 681.126C541.368 684.034 539.914 687.887 539.914 692.685C539.914 698.065 541.804 702.282 545.585 705.335C549.511 708.243 554.818 709.697 561.506 709.697Z" fill="#2D2D2D"/>
<path d="M677.521 725.837C667.488 725.837 658.764 723.365 651.348 718.421C644.078 713.478 638.48 706.498 634.554 697.484C630.628 688.469 628.665 677.781 628.665 665.422C628.665 653.063 630.628 642.376 634.554 633.361C638.48 624.346 644.078 617.367 651.348 612.423C658.764 607.479 667.488 605.008 677.521 605.008C685.227 605.008 692.279 606.68 698.677 610.024C705.074 613.223 709.873 617.803 713.071 623.764V568.366H731.392V723.22H714.816L714.162 705.771C710.963 712.024 706.092 716.967 699.549 720.603C693.006 724.092 685.663 725.837 677.521 725.837ZM681.228 708.389C688.062 708.389 693.806 706.644 698.459 703.154C703.257 699.665 706.892 694.721 709.364 688.323C711.836 681.78 713.071 674.146 713.071 665.422C713.071 656.407 711.836 648.701 709.364 642.303C706.892 635.906 703.257 631.035 698.459 627.69C693.806 624.201 688.062 622.456 681.228 622.456C671.05 622.456 662.908 626.309 656.801 634.015C650.839 641.576 647.858 652.045 647.858 665.422C647.858 678.654 650.839 689.123 656.801 696.829C662.908 704.536 671.05 708.389 681.228 708.389Z" fill="#2D2D2D"/>
<path d="M751.064 723.22V607.625H769.385V723.22H751.064Z" fill="#2D2D2D"/>
<path d="M795.537 723.22V607.625H812.331L812.985 637.069L810.804 635.106C812.258 628.272 814.803 622.674 818.438 618.312C822.073 613.804 826.435 610.46 831.524 608.279C836.758 606.098 842.356 605.008 848.318 605.008C857.187 605.008 864.458 606.97 870.128 610.896C875.944 614.822 880.234 620.129 882.996 626.818C885.905 633.361 887.359 640.704 887.359 648.846V723.22H869.038V654.081C869.038 646.956 868.165 640.995 866.421 636.196C864.821 631.253 862.204 627.545 858.569 625.073C854.934 622.456 850.208 621.147 844.392 621.147C835.523 621.147 828.18 623.983 822.364 629.653C816.693 635.179 813.858 643.321 813.858 654.081V723.22H795.537Z" fill="#2D2D2D"/>
<path d="M952.645 758.553C944.357 758.553 936.869 757.171 930.18 754.409C923.492 751.646 917.894 747.72 913.386 742.631C908.879 737.542 905.825 731.653 904.226 724.965L923.419 723.656C925.164 729.036 928.217 733.253 932.579 736.306C937.087 739.505 943.775 741.104 952.645 741.104C963.114 741.104 971.111 738.996 976.636 734.779C982.307 730.563 985.142 724.238 985.142 715.804V697.047C982.38 703.154 977.945 708.025 971.838 711.66C965.731 715.295 958.897 717.113 951.336 717.113C941.594 717.113 932.87 714.714 925.164 709.915C917.603 705.117 911.641 698.501 907.279 690.068C903.063 681.635 900.954 671.965 900.954 661.06C900.954 650.01 903.063 640.34 907.279 632.052C911.496 623.619 917.312 617.003 924.728 612.205C932.289 607.407 940.867 605.008 950.464 605.008C958.606 605.008 965.876 606.898 972.274 610.678C978.817 614.459 983.397 619.548 986.015 625.945V607.625H1003.46V715.368C1003.46 724.383 1001.43 732.089 997.356 738.487C993.285 745.03 987.469 749.974 979.908 753.318C972.347 756.808 963.259 758.553 952.645 758.553ZM952.209 699.665C962.096 699.665 970.02 696.248 975.982 689.414C981.943 682.434 984.997 672.983 985.142 661.06C985.288 653.063 983.979 646.229 981.216 640.558C978.599 634.742 974.746 630.308 969.657 627.254C964.713 624.055 958.897 622.456 952.209 622.456C942.03 622.456 934.106 625.945 928.435 632.925C922.91 639.759 920.147 649.137 920.147 661.06C920.147 672.983 922.983 682.434 928.653 689.414C934.47 696.248 942.321 699.665 952.209 699.665Z" fill="#2D2D2D"/>
<path d="M743.24 567.912C743.453 567.418 744.432 565.829 744.757 565.277L747.367 560.858C747.819 560.1 748.339 559.291 748.764 558.528C751.211 558.483 753.789 558.526 756.248 558.527L771.529 558.552L778.227 570.131C779.958 573.164 781.732 576.359 783.531 579.344C782.952 580.252 782.306 581.459 781.759 582.417L780.824 584.075L771.003 584.06C769.342 584.056 767.443 584.095 765.803 584.04L762.516 578.015C761.905 576.905 761.22 575.741 760.647 574.616L770.157 574.622L766.383 567.923L751.936 567.885C749.057 567.884 746.103 567.947 743.24 567.912Z" fill="#FE6100"/>
<path d="M736.473 579.403C736.474 579.211 738.817 575.282 739.109 574.631C740.814 574.588 742.629 574.617 744.341 574.616L754.001 574.617C754.604 575.849 755.46 577.325 756.135 578.544C757.133 580.346 758.12 582.154 759.096 583.968C755.906 583.924 752.641 583.962 749.445 583.967C750.758 586.23 752.054 588.503 753.334 590.785C759.455 590.874 765.696 590.813 771.827 590.819L776.865 590.81C776.291 591.958 775.346 593.477 774.684 594.603L771.436 600.132L748.569 600.159C747.235 597.762 745.671 595.198 744.278 592.812L736.473 579.403Z" fill="#FE6100"/>
<path d="M443.935 548.116C426.657 548.116 411.539 544.516 398.58 537.317C385.622 530.118 375.543 520.039 368.344 507.081C361.145 494.122 357.545 478.901 357.545 461.417C357.545 443.933 361.145 428.815 368.344 416.062C375.543 403.104 385.519 393.025 398.272 385.826C411.23 378.421 426.349 374.718 443.627 374.718C460.905 374.718 475.817 378.421 488.365 385.826C501.118 393.025 510.888 403.412 517.676 416.988C524.463 430.563 527.857 446.71 527.857 465.428V475.301H412.465C413.082 486.82 416.27 495.459 422.029 501.218C427.994 506.772 435.605 509.549 444.861 509.549C451.854 509.549 457.717 508.212 462.448 505.538C467.178 502.658 470.572 498.03 472.629 491.654L525.698 494.739C521.172 512.017 511.608 525.284 497.004 534.54C482.4 543.591 464.71 548.116 443.935 548.116ZM412.465 445.065H474.172C473.761 434.163 470.778 426.038 465.224 420.69C459.671 415.137 452.471 412.36 443.627 412.36C435.193 412.36 428.097 415.239 422.338 420.999C416.784 426.758 413.493 434.78 412.465 445.065ZM544.935 590.694V378.421H596.461L597.387 413.285L593.376 411.743C597.49 399.813 604.072 390.659 613.122 384.283C622.378 377.906 633.28 374.718 645.827 374.718C660.842 374.718 673.492 378.524 683.777 386.134C694.062 393.539 701.878 403.824 707.226 416.988C712.574 429.946 715.248 444.756 715.248 461.417C715.248 477.872 712.471 492.682 706.917 505.846C701.569 519.011 693.65 529.398 683.16 537.009C672.875 544.414 660.225 548.116 645.21 548.116C637.188 548.116 629.68 546.676 622.687 543.797C615.899 540.711 609.934 536.494 604.792 531.146C599.855 525.593 596.255 519.114 593.993 511.709L598.004 509.857V590.694H544.935ZM629.166 508.932C638.833 508.932 646.444 504.715 651.998 496.282C657.757 487.643 660.637 476.021 660.637 461.417C660.637 446.813 657.757 435.294 651.998 426.861C646.444 418.222 638.833 413.902 629.166 413.902C622.584 413.902 616.927 415.754 612.196 419.456C607.671 422.953 604.174 428.198 601.706 435.191C599.238 442.185 598.004 450.927 598.004 461.417C598.004 471.907 599.238 480.649 601.706 487.643C604.174 494.636 607.671 499.984 612.196 503.687C616.927 507.183 622.584 508.932 629.166 508.932ZM732.432 544.414V378.421H783.34L785.192 428.712L781.181 428.095C784.06 410.406 788.894 397.756 795.682 390.145C802.47 382.329 811.932 378.421 824.067 378.421H838.569V421.307H823.759C814.914 421.307 807.715 422.336 802.161 424.393C796.608 426.45 792.391 429.844 789.511 434.574C786.837 439.1 785.5 445.373 785.5 453.395V544.414H732.432ZM925.697 548.116C908.213 548.116 892.889 544.516 879.725 537.317C866.766 530.118 856.584 520.039 849.179 507.081C841.98 494.122 838.381 478.901 838.381 461.417C838.381 443.933 841.98 428.712 849.179 415.754C856.584 402.795 866.766 392.716 879.725 385.517C892.889 378.318 908.213 374.718 925.697 374.718C943.18 374.718 958.401 378.318 971.36 385.517C984.319 392.716 994.397 402.795 1001.6 415.754C1009 428.712 1012.7 443.933 1012.7 461.417C1012.7 478.901 1009 494.122 1001.6 507.081C994.397 520.039 984.319 530.118 971.36 537.317C958.401 544.516 943.18 548.116 925.697 548.116ZM925.697 508.932C935.981 508.932 943.9 504.818 949.454 496.59C955.213 488.363 958.093 476.638 958.093 461.417C958.093 446.402 955.213 434.78 949.454 426.552C943.9 418.119 935.981 413.902 925.697 413.902C915.206 413.902 907.081 418.119 901.322 426.552C895.768 434.78 892.992 446.402 892.992 461.417C892.992 476.638 895.768 488.363 901.322 496.59C907.081 504.818 915.206 508.932 925.697 508.932Z" fill="#2D2D2D"/>
<path d="M37.8652 289.525C55.8563 288.919 77.0285 289.39 95.227 289.384L202.688 289.429C245.245 289.505 278.959 296.331 310.45 328.083C334.532 352.191 347.894 384.978 347.524 419.05C347.45 453.1 333.751 485.704 309.484 509.587C277.075 541.552 242.697 547.81 199.297 547.576L139.769 547.4C152.247 529.891 170.84 507.745 184.446 490.446C217.286 490.689 243.62 494.92 268.767 469.055C282.331 455.113 289.821 436.366 289.599 416.915C289.181 398.04 281.328 380.092 267.752 366.972C258.822 358.386 247.836 352.226 235.853 349.079C220.898 345.3 192.25 346.463 175.331 346.456C151.859 346.377 128.387 346.437 104.916 346.635C91.1768 333.503 73.5255 320.479 59.0615 307.824C52.3803 301.979 43.8368 296.012 37.8652 289.525Z" fill="#FE6100"/>
<path d="M128.063 368.43C134.657 372.216 142.346 377.896 148.973 382.149C167.89 394.284 187.441 408.389 206.901 419.44C194.74 431.841 181.878 447.116 170.316 460.313L105.822 533.863C102.928 537.218 100.116 540.23 97.0719 543.447L97.051 467.906C77.5386 451.509 57.4342 435.563 38.1562 419.08C67.2196 418.353 98.8179 418.554 127.942 418.878L128.063 368.43Z" fill="#FE6100"/>
</svg>
